<svg xmlns="http://www.w3.org/2000/svg" viewBox="0 0 1224 792"><path d="M75.6 102.6v214.6H118v53.7H5.9V102.6h69.7zm386.6 81.2h-64.8v-19.9c0-9.3-.8-15.2-2.5-17.7s-4.4-3.8-8.3-3.8c-4.2 0-7.4 1.7-9.5 5.1-2.2 3.4-3.2 8.6-3.2 15.6 0 9 1.2 15.7 3.6 20.2 2.3 4.5 8.9 10 19.7 16.4 31 18.4 50.6 33.6 58.7 45.4C464 256.9 468 276 468 302.3c0 19.1-2.2 33.2-6.7 42.2-4.5 9.1-13.1 16.7-25.9 22.8-12.8 6.1-27.7 9.2-44.7 9.2-18.7 0-34.6-3.5-47.8-10.6-13.2-7.1-21.8-16.1-25.9-27-4.1-10.9-6.1-26.5-6.1-46.6v-17.6h64.8v32.6c0 10.1.9 16.5 2.7 19.4s5.1 4.3 9.7 4.3 8.1-1.8 10.4-5.5c2.3-3.6 3.4-9.1 3.4-16.2 0-15.8-2.2-26.1-6.5-31-4.4-4.9-15.3-13-32.6-24.4-17.3-11.5-28.8-19.8-34.5-25s-10.3-12.4-14-21.5c-3.7-9.2-5.6-20.9-5.6-35.1 0-20.5 2.6-35.6 7.9-45.1 5.2-9.5 13.7-16.9 25.4-22.3 11.7-5.4 25.8-8 42.4-8 18.1 0 33.6 2.9 46.3 8.8 12.8 5.9 21.2 13.2 25.3 22.1 4.1 8.9 6.2 24 6.2 45.3v10.7zm168.1-81.2v53.7h-41.4v214.6h-69.8V156.3h-41.3v-53.7h152.5zM883 269v45.2l-18.7 11.9 23.4 44.7h-62l-8-14.9c-20.8 13.7-40.4 20.5-59 20.5-19.4 0-34.4-6.5-44.9-19.4-10.5-12.9-15.7-28.5-15.7-46.7 0-14.6 3.1-26 9.3-34.3 6.2-8.3 15.5-15 27.8-20.2-17.7-12.7-26.5-29.9-26.5-51.5 0-18.7 6.3-33.7 18.9-45.1 12.6-11.4 29.9-17.1 52-17.1 19.9 0 35.5 5.6 47 16.7 11.4 11.2 17.1 25.3 17.1 42.6 0 18.1-7 34.2-20.9 48.2l23.6 42.7L883 269zm-88.2 56.7l-21.6-36.2c-8.3 7.5-12.4 15.6-12.4 24.4 0 6.3 1.3 11 3.9 14.2 2.6 3.1 6.4 4.7 11.5 4.7 5.3 0 11.5-2.4 18.6-7.1zm-15.2-103.8c7.6-9.8 11.4-19.2 11.4-28.2 0-3.9-1.1-7.4-3.3-10.6-2.2-3.2-5.3-4.8-9.3-4.8-3.6 0-6.4 1.2-8.3 3.6-1.9 2.4-2.8 6.1-2.8 11.1.1 10.5 4.1 20.1 12.3 28.9zM0 391h118.1v53.7H69.8v50.9h43.1v51H69.8v112.7H0V391zm473 0v179.3c0 20.3-.7 34.6-2 42.8-1.3 8.2-5.2 16.7-11.8 25.4-6.5 8.7-15.1 15.2-25.8 19.7-10.7 4.5-23.2 6.7-37.7 6.7-16 0-30.2-2.7-42.4-8-12.3-5.3-21.4-12.2-27.5-20.7-6.1-8.5-9.7-17.5-10.8-26.9-1.1-9.4-1.7-29.3-1.7-59.6V391h69.8v201.1c0 11.7.6 19.2 1.9 22.5 1.3 3.3 3.8 4.9 7.7 4.9 4.4 0 7.3-1.8 8.5-5.4 1.3-3.6 1.9-12.1 1.9-25.4V391H473zm182.8 0v268.2h-61.1l-36.3-121.9v121.9H500V391h58.3l39.1 120.8V391h58.4zm28 0H736c33.7 0 56.5 1.5 68.3 4.6 11.9 3.1 20.9 8.2 27.1 15.2 6.2 7.1 10 14.9 11.6 23.6 1.5 8.7 2.3 25.7 2.3 51.1v93.9c0 24.1-1.1 40.2-3.4 48.3-2.3 8.1-6.2 14.5-11.8 19.1-5.6 4.6-12.6 7.8-20.9 9.6-8.3 1.8-20.8 2.7-37.4 2.7h-88V391zm69.7 45.8v176.5c10 0 16.2-2 18.6-6 2.3-4 3.5-15 3.5-32.9V470.1c0-12.2-.4-19.9-1.2-23.4-.8-3.4-2.5-5.9-5.3-7.5-2.7-1.6-7.9-2.4-15.6-2.4zM299.1 402c0 27-.6 46-1.9 57.2-1.3 11.2-5.2 21.5-11.9 30.7-6.7 9.3-15.7 16.4-27.1 21.4-11.4 5-24.6 7.5-39.8 7.5-14.4 0-27.3-2.3-38.7-7-11.4-4.7-20.6-11.7-27.6-21.1-7-9.4-11.1-19.6-12.4-30.7-1.3-11-2-30.4-2-58v-45.9c0-26.9.6-46 1.9-57.2 1.3-11.2 5.2-21.5 11.9-30.7 6.7-9.3 15.7-16.4 27.1-21.4 11.4-5 24.6-7.5 39.8-7.5 14.4 0 27.3 2.3 38.7 7 11.4 4.7 20.6 11.7 27.6 21.1 7 9.4 11.1 19.6 12.4 30.7 1.3 11 2 30.4 2 58V402zm-69.7-88.1c0-12.5-.7-20.5-2.1-23.9-1.4-3.5-4.2-5.2-8.5-5.2-3.6 0-6.4 1.4-8.4 4.2-1.9 2.8-2.9 11.1-2.9 24.9v125.3c0 15.6.6 25.2 1.9 28.8 1.3 3.6 4.2 5.5 8.9 5.5s7.8-2.1 9.1-6.3c1.3-4.2 2-14.2 2-30V313.9zM1032 100.3V155h-50.5v-54.7h50.5zm122.4 0V155h-50.5v-54.7h50.5zM1032 441.2v54.7h-50.5v-54.7h50.5zm122.4 0v54.7h-50.5v-54.7h50.5zm69.6 120.9v45.8c-42.1 38.2-93.8 57.3-155.2 57.3-59.2 0-111.6-19.1-157-57.3v-45.4c47.5 35.8 99.9 53.7 157 53.7 57.1 0 108.8-18 155.2-54.1zm0-238.8v45.4c-46.1-36.2-97.8-54.3-155.2-54.3-56.9 0-109.2 18.1-157 54.3V323c45.5-38.3 97.8-57.5 157-57.5 60.9 0 112.6 19.3 155.2 57.8z"/></svg>