<svg xmlns="http://www.w3.org/2000/svg" viewBox="0 0 1200 560"><path d="M78.3 10.5v208.1h41.1v52.1H10.6V10.5h67.7zm374.9 78.7h-62.8V69.9c0-9-.8-14.7-2.4-17.2-1.6-2.5-4.3-3.7-8-3.7-4.1 0-7.2 1.7-9.2 5-2.1 3.3-3.1 8.4-3.1 15.1 0 8.7 1.2 15.2 3.5 19.6 2.2 4.4 8.6 9.7 19.1 15.9 30.1 17.9 49.1 32.5 56.9 44 7.8 11.5 11.7 29.9 11.7 55.4 0 18.5-2.2 32.2-6.5 41-4.3 8.8-12.7 16.2-25.2 22.1-12.4 5.9-26.9 8.9-43.4 8.9-18.1 0-33.6-3.4-46.4-10.3-12.8-6.9-21.2-15.6-25.2-26.2s-5.9-25.7-5.9-45.2v-17h62.8V209c0 9.8.9 16 2.7 18.8s4.9 4.2 9.4 4.2 7.8-1.8 10-5.3 3.3-8.8 3.3-15.8c0-15.3-2.1-25.3-6.3-30.1-4.3-4.7-14.8-12.6-31.7-23.6-16.8-11.1-28-19.2-33.4-24.3-5.5-5-10-12-13.6-20.9-3.6-8.9-5.4-20.3-5.4-34.1 0-19.9 2.5-34.5 7.6-43.7 5.1-9.2 13.3-16.4 24.7-21.6 11.5-5 25.2-7.6 41.3-7.6 17.6 0 32.5 2.8 44.9 8.5 12.4 5.7 20.6 12.8 24.6 21.5 4 8.6 6 23.3 6 44v10.2zm163.2-78.7v52.1h-40.2v208.1h-67.7V62.5h-40v-52h147.9zm245.1 161.3v43.9l-18.1 11.6 22.7 43.4H806l-7.8-14.5c-20.1 13.3-39.2 19.9-57.2 19.9-18.9 0-33.4-6.3-43.5-18.8-10.2-12.5-15.3-27.6-15.3-45.3 0-14.1 3-25.2 9-33.3 6-8 15-14.6 27-19.6-17.1-12.3-25.7-29-25.7-50 0-18.1 6.1-32.7 18.3-43.7 12.2-11 29-16.6 50.5-16.6 19.3 0 34.5 5.4 45.6 16.2 11.1 10.8 16.6 24.6 16.6 41.3 0 17.6-6.8 33.2-20.3 46.8l22.9 41.4 35.4-22.7zm-85.6 55.1l-21-35.1c-8 7.3-12.1 15.2-12.1 23.6 0 6.1 1.3 10.7 3.8 13.7 2.5 3.1 6.2 4.6 11.1 4.6 5.3 0 11.3-2.3 18.2-6.8zm-14.7-100.7c7.4-9.5 11.1-18.6 11.1-27.3 0-3.8-1.1-7.2-3.2-10.3-2.1-3.1-5.1-4.7-9-4.7-3.5 0-6.2 1.2-8 3.5-1.8 2.4-2.7 5.9-2.7 10.8-.1 10.1 3.8 19.4 11.8 28zM4.9 290.1h114.6v52.1H72.6v49.3h41.8V441H72.6v109.3H4.9V290.1zm458.9 0V464c0 19.7-.6 33.6-1.9 41.5-1.3 8-5.1 16.2-11.4 24.6-6.3 8.4-14.7 14.8-25 19.1-10.3 4.3-22.5 6.5-36.6 6.5-15.5 0-29.3-2.6-41.1-7.7-11.9-5.1-20.8-11.8-26.7-20.1-5.9-8.3-9.4-17-10.4-26.1-1.1-9.2-1.6-28.4-1.6-57.8V290h67.7v195.1c0 11.4.6 18.6 1.8 21.8 1.2 3.2 3.7 4.7 7.5 4.7 4.3 0 7-1.7 8.3-5.2 1.2-3.5 1.8-11.7 1.8-24.7V290.1h67.6zm177.2 0v260.2h-59.3L546.5 432v118.3H490V290.1h56.6l37.9 117.2V290.1H641zm27.2 0h50.6c32.7 0 54.8 1.5 66.3 4.5s20.3 7.9 26.3 14.8 9.7 14.5 11.3 22.9c1.5 8.4 2.3 24.9 2.3 49.6V473c0 23.4-1.1 39-3.3 46.9-2.2 7.9-6 14-11.5 18.5s-12.2 7.6-20.3 9.3c-8 1.8-20.1 2.7-36.3 2.7h-85.3V290.1zm67.7 44.6v171.2c9.7 0 15.8-2 18-5.9s3.4-14.5 3.4-31.9V367c0-11.8-.4-19.3-1.1-22.7-.8-3.3-2.5-5.8-5.1-7.3-2.8-1.6-7.8-2.3-15.2-2.3zm-440.8-33.8c0 26.1-.6 44.7-1.8 55.5-1.2 10.9-5.1 20.8-11.6 29.8s-15.2 15.9-26.3 20.7c-11 4.8-23.9 7.2-38.6 7.2-13.9 0-26.4-2.3-37.5-6.8-11.1-4.6-20-11.4-26.8-20.5-6.8-9.1-10.8-19-12.1-29.7-1.3-10.7-1.9-29.5-1.9-56.3v-44.5c0-26.1.6-44.7 1.8-55.5 1.2-10.9 5.1-20.8 11.6-29.8s15.2-15.9 26.3-20.7c11-4.8 23.9-7.2 38.6-7.2 13.9 0 26.4 2.3 37.5 6.8 11.1 4.6 20 11.4 26.8 20.5 6.8 9.1 10.8 19 12.1 29.7 1.3 10.7 1.9 29.5 1.9 56.3v44.5zm-67.7-85.5c0-12.1-.7-19.8-2-23.2-1.3-3.4-4.1-5.1-8.3-5.1-3.5 0-6.2 1.4-8.1 4.1-1.9 2.7-2.8 10.8-2.8 24.2v121.5c0 15.1.6 24.4 1.8 28 1.2 3.5 4.1 5.3 8.6 5.3 4.6 0 7.6-2 8.8-6.1 1.3-4.1 1.9-13.8 1.9-29.1V215.4zM1006 8.2v53h-49v-53h49zm118.7 0v53h-49v-53h49zM1006 338.9v53h-49v-53h49zm118.7 0v53h-49v-53h49zm67.5 117.3v44.4c-40.8 37.1-91 55.6-150.5 55.6-57.5 0-108.2-18.5-152.3-55.6v-44c46.1 34.8 96.9 52.1 152.3 52.1s105.6-17.5 150.5-52.5zm0-231.7v44c-44.7-35.1-94.9-52.6-150.5-52.6-55.2 0-105.9 17.5-152.3 52.6v-44.4c44.2-37.2 94.9-55.7 152.3-55.7 59.1 0 109.2 18.7 150.5 56.1z"/></svg>